<svg width="29" height="20" viewBox="0 0 29 20" fill="none" xmlns="http://www.w3.org/2000/svg">
<path d="M13.9625 19C19.3625 19 23.5625 14.35 25.3625 11.65C26.1125 10.6 26.1125 9.25 25.3625 8.2C23.5625 5.65 19.3625 1 13.9625 1C8.5625 1 4.3625 5.65 2.5625 8.35C1.8125 9.4 1.8125 10.75 2.5625 11.65C4.3625 14.35 8.5625 19 13.9625 19ZM13.9625 5.5C16.5125 5.5 18.4625 7.45 18.4625 10C18.4625 12.55 16.5125 14.5 13.9625 14.5C11.4125 14.5 9.4625 12.55 9.4625 10C9.4625 7.45 11.4125 5.5 13.9625 5.5Z" fill="#25295B"/>
<line x1="0.5547" y1="1.16795" x2="27.5547" y2="19.1679" stroke="#25295B" stroke-width="2"/>
</svg>
