<svg width="30" height="30" viewBox="0 0 30 30" fill="none" xmlns="http://www.w3.org/2000/svg">
<path d="M15 18.75C17.0711 18.75 18.75 17.0711 18.75 15C18.75 12.9289 17.0711 11.25 15 11.25C12.9289 11.25 11.25 12.9289 11.25 15C11.25 17.0711 12.9289 18.75 15 18.75Z" stroke="#25295B" stroke-width="2" stroke-miterlimit="10" stroke-linecap="round" stroke-linejoin="round"/>
<path d="M27.2016 12.8925L25.0256 12.6206C24.7723 11.5513 24.3485 10.5298 23.7703 9.59528L25.1184 7.86184C25.4371 7.45335 25.5953 6.94247 25.5635 6.42539C25.5317 5.90831 25.3119 5.42071 24.9456 5.05439C24.5793 4.68806 24.0917 4.4683 23.5746 4.43646C23.0575 4.40462 22.5466 4.56291 22.1381 4.88153L20.4047 6.22966C19.4702 5.65149 18.4487 5.22763 17.3794 4.97435L17.1075 2.79841C17.0476 2.28093 16.7997 1.80351 16.4107 1.45697C16.0218 1.11043 15.519 0.918945 14.9981 0.918945C14.4772 0.918945 13.9745 1.11043 13.5855 1.45697C13.1966 1.80351 12.9486 2.28093 12.8888 2.79841L12.6169 4.97435C11.5476 5.22763 10.5261 5.65149 9.59156 6.22966L7.86187 4.88153C7.45338 4.56291 6.9425 4.40462 6.42542 4.43646C5.90834 4.4683 5.42074 4.68806 5.05442 5.05439C4.68809 5.42071 4.46833 5.90831 4.43649 6.42539C4.40465 6.94247 4.56295 7.45335 4.88156 7.86184L6.22969 9.59528C5.65152 10.5298 5.22766 11.5513 4.97438 12.6206L2.79844 12.8925C2.28096 12.9523 1.80354 13.2003 1.457 13.5892C1.11046 13.9782 0.918976 14.4809 0.918976 15.0018C0.918976 15.5228 1.11046 16.0255 1.457 16.4145C1.80354 16.8034 2.28096 17.0514 2.79844 17.1112L4.97438 17.3831C5.22766 18.4524 5.65152 19.4739 6.22969 20.4084L4.88156 22.1381C4.56295 22.5466 4.40465 23.0575 4.43649 23.5745C4.46833 24.0916 4.68809 24.5792 5.05442 24.9456C5.42074 25.3119 5.90834 25.5316 6.42542 25.5635C6.9425 25.5953 7.45338 25.437 7.86187 25.1184L9.59531 23.7703C10.5298 24.3484 11.5513 24.7723 12.6206 25.0256L12.8925 27.2015C12.9524 27.719 13.2003 28.1964 13.5893 28.543C13.9782 28.8895 14.481 29.081 15.0019 29.081C15.5228 29.081 16.0255 28.8895 16.4145 28.543C16.8034 28.1964 17.0514 27.719 17.1113 27.2015L17.3831 25.0256C18.4524 24.7723 19.4739 24.3484 20.4084 23.7703L22.1419 25.1184C22.5504 25.437 23.0612 25.5953 23.5783 25.5635C24.0954 25.5316 24.583 25.3119 24.9493 24.9456C25.3157 24.5792 25.5354 24.0916 25.5673 23.5745C25.5991 23.0575 25.4408 22.5466 25.1222 22.1381L23.7741 20.4047C24.3522 19.4702 24.7761 18.4486 25.0294 17.3793L27.2053 17.1075C27.7228 17.0476 28.2002 16.7996 28.5467 16.4107C28.8933 16.0218 29.0848 15.519 29.0848 14.9981C29.0848 14.4772 28.8933 13.9744 28.5467 13.5855C28.2002 13.1966 27.7228 12.9486 27.2053 12.8887L27.2016 12.8925Z" stroke="#25295B" stroke-width="2" stroke-miterlimit="10" stroke-linecap="round" stroke-linejoin="round"/>
</svg>
