<svg width="24" height="18" viewBox="0 0 24 18" fill="none" xmlns="http://www.w3.org/2000/svg">
<path d="M11.9625 18C17.3625 18 21.5625 13.35 23.3625 10.65C24.1125 9.6 24.1125 8.25 23.3625 7.2C21.5625 4.65 17.3625 0 11.9625 0C6.5625 0 2.3625 4.65 0.5625 7.35C-0.1875 8.4 -0.1875 9.75 0.5625 10.65C2.3625 13.35 6.5625 18 11.9625 18ZM11.9625 4.5C14.5125 4.5 16.4625 6.45 16.4625 9C16.4625 11.55 14.5125 13.5 11.9625 13.5C9.4125 13.5 7.4625 11.55 7.4625 9C7.4625 6.45 9.4125 4.5 11.9625 4.5Z" fill="#B3B7BB"/>
</svg>
